<?xml version="1.0" encoding="UTF-8"?>
<svg xmlns="http://www.w3.org/2000/svg" viewBox="0 0 16 16">
  <defs>
    <style>
      .cls-1 {
        fill: #d99092;
        opacity: .63;
      }

      .cls-1, .cls-2, .cls-3, .cls-4 {
        stroke-width: 0px;
      }

      .cls-5 {
        fill: #f1ce8f;
      }

      .cls-5, .cls-6, .cls-7, .cls-8, .cls-9 {
        stroke: #231f20;
        stroke-miterlimit: 10;
        stroke-width: .25px;
      }

      .cls-6 {
        fill: #ffc100;
      }

      .cls-7 {
        fill: #fff;
      }

      .cls-8 {
        fill: #763b00;
      }

      .cls-2 {
        opacity: .25;
      }

      .cls-2, .cls-3, .cls-4 {
        fill: #f6891f;
      }

      .cls-3 {
        opacity: .5;
      }

      .cls-4 {
        opacity: .3;
      }

      .cls-9 {
        fill: none;
      }
    </style>
  </defs>
  <g id="Layer_2" data-name="Layer 2">
    <path class="cls-5" d="M9.24,2.71c.88.2,1.5.56,1.9.8.64.38,2.53,1.51,3.04,3.44.33,1.26-.38,1.29-.85,4.98-.13,1.06-.26,2.43-.64,2.47-.33.03-.47-1.02-1.2-1.16-.34-.07-.66.1-1.27.42-.75.4-.7.58-1.16.74-.55.19-1.27.18-1.84-.14-.59-.33-.51-.7-.99-.85-.44-.13-.65.14-1.69.39-.81.19-1.21.29-1.52.11-.5-.3.09-1.14-.35-2.15-.36-.84-.92-.7-1.31-1.48-.44-.91-.1-1.92.25-2.96.2-.58.53-1.58,1.39-2.54,1.5-1.68,3.98-2.55,6.23-2.04Z"/>
  </g>
  <g id="Layer_1" data-name="Layer 1">
    <path class="cls-7" d="M13.39,8c0,.37-.04.72-.11,1.07-.49,2.47-2.67,4.32-5.28,4.32s-4.79-1.85-5.28-4.32c-.07-.35-.11-.7-.11-1.07,0-.71.14-1.39.39-2.01.79-1.98,2.73-3.38,5-3.38s4.21,1.4,5,3.38c.25.62.39,1.3.39,2.01Z"/>
    <path class="cls-7" d="M2.61,8c0,.37.04.72.11,1.07-.87-.11-1.54-.75-1.54-1.53,0-.86.81-1.55,1.81-1.55h.01c-.25.62-.39,1.3-.39,2.01Z"/>
    <path class="cls-7" d="M14.81,7.54c0,.78-.66,1.42-1.53,1.53.07-.35.11-.7.11-1.07,0-.71-.14-1.39-.39-2.01,1,0,1.81.69,1.81,1.55Z"/>
    <rect class="cls-9" x="7.38" y="7.78" width="1.24" height="1.01" rx=".51" ry=".51"/>
    <g id="Layer_4" data-name="Layer 4">
      <ellipse class="cls-1" cx="4.74" cy="9.83" rx="1.61" ry="1.04"/>
      <ellipse class="cls-1" cx="11.12" cy="9.83" rx="1.61" ry="1.04"/>
    </g>
    <path class="cls-6" d="M4.74,5c.46,0,.56,1.14.9,1.45s1.6.03,1.74.47-1.23.83-1.32,1.29.68,1.54.31,1.82-1.63-.86-1.63-.86c0,0-1.26,1.13-1.63.86s.45-1.38.31-1.82-1.46-.85-1.32-1.29,1.45,0,1.82-.26.35-1.65.82-1.65Z"/>
    <path class="cls-8" d="M11.26,5c.46,0,.56,1.14.9,1.45.34.31,1.6.03,1.74.47s-1.23.83-1.32,1.29c-.09.45.68,1.54.31,1.82-.37.27-1.63-.86-1.63-.86,0,0-1.26,1.13-1.63.86-.37-.27.45-1.38.31-1.82-.14-.44-1.46-.85-1.32-1.29s1.45,0,1.82-.26c.37-.27.35-1.65.82-1.65Z"/>
    <line class="cls-9" x1="1.7" y1="8" x2="1.13" y2="8.58"/>
    <line class="cls-9" x1="13.86" y1="8.26" x2="14.44" y2="8.83"/>
    <line class="cls-9" x1="1.49" y1="7.48" x2=".93" y2="8.06"/>
  </g>
  <g id="Layer_3" data-name="Layer 3">
    <path class="cls-5" d="M9.24,2.71c-.03-.16-2.85-.38-4.52,1.13-.37.34-.69.8-1.24,1.48-.76.95-.79,3.92-.74,4.02.18.38.3-1.67.95-2.12.76-.53,1.32-1.91,1.91-2.86,1.02-1.65,3.66-1.5,3.64-1.66Z"/>
    <path class="cls-5" d="M8.78,2.71c-.03-.16-2.85-.38-4.52,1.13-.37.34-.69.8-1.24,1.48-.76.95-.79,3.92-.74,4.02.18.38.3-1.67.95-2.12.76-.53,1.32-1.91,1.91-2.86,1.02-1.65,3.66-1.5,3.64-1.66Z"/>
    <path class="cls-5" d="M8.32,2.71c-.03-.16-2.85-.38-4.52,1.13-.37.34-.69.8-1.24,1.48-.76.95-.79,3.92-.74,4.02.18.38.3-1.67.95-2.12.76-.53,1.32-1.91,1.91-2.86,1.02-1.65,3.66-1.5,3.64-1.66Z"/>
    <path class="cls-5" d="M9.08,2.73c.03-.16.2,1.09,1.86,2.6.37.34,2.07-.2,2.21.66.27,1.7.16,1.76.12,1.86-.18.38-.47-.28-.87-.96-.75-1.29-2.29-.61-2.87-1.56-1.02-1.65-.47-2.44-.45-2.6Z"/>
    <path class="cls-5" d="M9.15,2.38c-.14-.08.2,1.09,1.86,2.6.37.34,2.07-.2,2.21.66.27,1.7.16,1.76.12,1.86-.18.38-.47-.28-.87-.96-.75-1.29-2.55-.5-2.87-1.56-.63-2.09-.37-2.56-.45-2.6Z"/>
    <path class="cls-5" d="M9.24,2.71c.03-.16,1.02-.07,2.68,1.45.37.34,1.67.3,1.8,1.17.27,1.7.16,1.76.12,1.86-.18.38-.47-.28-.87-.96-.75-1.29-2.29-.61-2.87-1.56-1.02-1.65-.89-1.79-.86-1.95Z"/>
  </g>
  <g id="Layer_5" data-name="Layer 5">
    <path class="cls-2" d="M8.99,2.63c.28.64-2.75,1.28-3.35,3.82-.37,1.58.22,3.8,0,6.22-.01.16-.06.57-.35.91-.57.65-1.87.77-2.35.24-.44-.49.19-1.15-.26-2.06-.33-.66-.76-.52-1.18-1.26-.14-.25-.22-.8-.37-1.91-.15-1.11-.14-1.34,0-1.6.21-.39.5-.42.92-.76.73-.61.88-1.39,1.06-1.81.86-1.97,5.55-2.56,5.89-1.77Z"/>
    <path class="cls-4" d="M12.89,10.02c-.04-.09-.36.1-.82-.07-.44-.16-.44-.43-.74-.46-.38-.04-.61.35-1.14.44-.09.02-.23.04-.4,0-.18-.04-.27-.12-.29-.1-.03.03.19.3.45.5.17.13.59.48,1.17.53.98.09,1.83-.7,1.77-.85Z"/>
    <path class="cls-3" d="M7.36,8.58c.12.24.32.35.32.35,0,0-.72-.41-.66-.79.06-.36.78-.51.79-.49,0,.02-.47.15-.54.48-.04.18.05.36.09.45Z"/>
  </g>
</svg>